<?xml version="1.0" encoding="UTF-8" standalone="no"?>
<!-- Created with Inkscape (http://www.inkscape.org/) -->

<svg
   xmlns:dc="http://purl.org/dc/elements/1.1/"
   xmlns:cc="http://creativecommons.org/ns#"
   xmlns:rdf="http://www.w3.org/1999/02/22-rdf-syntax-ns#"
   xmlns:svg="http://www.w3.org/2000/svg"
   xmlns="http://www.w3.org/2000/svg"
   xmlns:sodipodi="http://sodipodi.sourceforge.net/DTD/sodipodi-0.dtd"
   xmlns:inkscape="http://www.inkscape.org/namespaces/inkscape"
   width="100"
   height="100"
   viewBox="0 0 26.458333 26.458333"
   version="1.1"
   id="svg8"
   sodipodi:docname="cube.svg"
   inkscape:export-filename="C:\Users\Федор\Desktop\avatar.png"
   inkscape:export-xdpi="96"
   inkscape:export-ydpi="96"
   inkscape:version="0.92.4 (5da689c313, 2019-01-14)">
  <defs
     id="defs2" />
  <sodipodi:namedview
     id="base"
     pagecolor="#ffffff"
     bordercolor="#666666"
     borderopacity="1.0"
     inkscape:pageopacity="0.0"
     inkscape:pageshadow="2"
     inkscape:zoom="11.2"
     inkscape:cx="52.330708"
     inkscape:cy="57.177978"
     inkscape:document-units="mm"
     inkscape:current-layer="layer1"
     showgrid="false"
     units="px"
     width="100px"
     inkscape:window-width="1920"
     inkscape:window-height="986"
     inkscape:window-x="-11"
     inkscape:window-y="-11"
     inkscape:window-maximized="1" />
  <metadata
     id="metadata5">
    <rdf:RDF>
      <cc:Work
         rdf:about="">
        <dc:format>image/svg+xml</dc:format>
        <dc:type
           rdf:resource="http://purl.org/dc/dcmitype/StillImage" />
        <dc:title />
      </cc:Work>
    </rdf:RDF>
  </metadata>
  <g
     inkscape:label="Layer 1"
     inkscape:groupmode="layer"
     id="layer1"
     transform="translate(0,-270.54168)">
    <path
       style="fill:none;stroke:#000000;stroke-width:0.26458332px;stroke-linecap:butt;stroke-linejoin:miter;stroke-opacity:1"
       d="m 6.6145371,277.15624 6.6145829,-3.96875 6.614583,3.96875 -6.614583,3.96875 z"
       id="path3713"
       inkscape:connector-curvature="0"
       sodipodi:nodetypes="ccccc" />
    <path
       style="fill:none;stroke:#000000;stroke-width:0.26458332px;stroke-linecap:butt;stroke-linejoin:miter;stroke-opacity:1"
       d="m 6.6145833,283.77085 6.6145837,3.96875 6.614583,-3.96875"
       id="path3730"
       inkscape:connector-curvature="0"
       sodipodi:nodetypes="ccc" />
    <path
       style="fill:none;stroke:#000000;stroke-width:0.26458332px;stroke-linecap:butt;stroke-linejoin:miter;stroke-opacity:1"
       d="m 6.6145369,277.15624 4.63e-5,6.61461"
       id="path3734"
       inkscape:connector-curvature="0" />
    <path
       style="fill:none;stroke:#000000;stroke-width:0.26458332px;stroke-linecap:butt;stroke-linejoin:miter;stroke-opacity:1"
       d="m 13.22912,281.12499 4.7e-5,6.61461"
       id="path3736"
       inkscape:connector-curvature="0" />
    <path
       style="fill:none;stroke:#000000;stroke-width:0.26458332px;stroke-linecap:butt;stroke-linejoin:miter;stroke-opacity:1"
       d="m 19.843703,277.15624 4.7e-5,6.61461"
       id="path3738"
       inkscape:connector-curvature="0" />
    <path
       style="fill:#668000;stroke-width:0.08928572"
       d="m 37.352262,57.942212 c -8.077967,-4.852019 -12.506971,-7.561591 -12.477679,-7.633583 0.02498,-0.06138 0.0698,-0.171875 0.09961,-0.245536 0.03992,-0.09866 -0.0071,-0.133928 -0.178571,-0.133928 H 24.562851 V 37.609794 25.290425 L 24.337005,25.142444 C 24.111467,24.994666 24.12873,24.983924 37.052954,17.229803 L 49.994749,9.4651416 62.9038,17.210385 c 7.099978,4.259884 12.909051,7.77676 12.909051,7.815281 0,0.03852 -0.08036,0.09554 -0.178572,0.126713 -0.177438,0.05632 -0.178571,0.135092 -0.178571,12.416731 v 12.360055 h -0.278126 -0.278126 l 0.151331,0.230961 c 0.08323,0.127028 0.138077,0.243771 0.121876,0.259427 -0.153942,0.148774 -24.985059,14.990581 -25.118741,15.013723 -0.114053,0.01974 -4.703145,-2.686766 -12.70166,-7.491064 z M 49.540854,52.183629 49.518208,40.241665 37.821779,33.216613 c -6.433035,-3.863779 -11.847098,-7.11077 -12.03125,-7.215535 l -0.334821,-0.190482 v 11.965501 11.965501 l 11.986607,7.191977 c 6.592634,3.955587 12.016888,7.191986 12.053897,7.191998 0.03701,1.1e-5 0.0571,-5.373863 0.04464,-11.941944 z m 13.020463,4.741245 12.001534,-7.200721 V 37.765718 25.807282 l -0.434422,0.252906 c -0.238933,0.139098 -5.661691,3.386834 -12.050573,7.217191 l -11.616149,6.964286 -0.003,11.941964 c -0.0017,6.568081 0.02042,11.941964 0.04904,11.941964 0.02862,0 5.452726,-3.240324 12.05357,-7.200719 z M 62.404988,32.027379 c 6.388883,-3.830357 11.617499,-6.992423 11.619149,-7.026813 0.0016,-0.03439 -5.401018,-3.304848 -12.005929,-7.267685 L 50.009279,10.527725 38.000351,17.732881 c -6.604911,3.962837 -12.008929,7.233316 -12.008929,7.267733 0,0.03442 5.393974,3.30175 11.986607,7.26074 l 11.986608,7.198164 0.4121,-0.233926 c 0.226656,-0.12866 5.639369,-3.367856 12.028251,-7.198213 z"
       id="path20"
       inkscape:connector-curvature="0"
       transform="matrix(0.26458333,0,0,0.26458333,0,270.54168)" />
  </g>
</svg>
