<?xml version="1.0" encoding="UTF-8" standalone="no"?>
<!-- Created with Inkscape (http://www.inkscape.org/) -->

<svg
   xmlns:dc="http://purl.org/dc/elements/1.1/"
   xmlns:cc="http://creativecommons.org/ns#"
   xmlns:rdf="http://www.w3.org/1999/02/22-rdf-syntax-ns#"
   xmlns:svg="http://www.w3.org/2000/svg"
   xmlns="http://www.w3.org/2000/svg"
   xmlns:sodipodi="http://sodipodi.sourceforge.net/DTD/sodipodi-0.dtd"
   xmlns:inkscape="http://www.inkscape.org/namespaces/inkscape"
   width="100"
   height="100"
   viewBox="0 0 26.458333 26.458333"
   version="1.1"
   id="svg8"
   sodipodi:docname="cube.svg"
   inkscape:export-filename="C:\Users\Федор\Desktop\avatar.png"
   inkscape:export-xdpi="96"
   inkscape:export-ydpi="96"
   inkscape:version="0.92.4 (5da689c313, 2019-01-14)">
  <defs
     id="defs2" />
  <sodipodi:namedview
     id="base"
     pagecolor="#ffffff"
     bordercolor="#666666"
     borderopacity="1.0"
     inkscape:pageopacity="0.0"
     inkscape:pageshadow="2"
     inkscape:zoom="11.2"
     inkscape:cx="32.196779"
     inkscape:cy="57.177978"
     inkscape:document-units="mm"
     inkscape:current-layer="layer1"
     showgrid="false"
     units="px"
     width="100px"
     inkscape:window-width="1920"
     inkscape:window-height="986"
     inkscape:window-x="-11"
     inkscape:window-y="-11"
     inkscape:window-maximized="1" />
  <metadata
     id="metadata5">
    <rdf:RDF>
      <cc:Work
         rdf:about="">
        <dc:format>image/svg+xml</dc:format>
        <dc:type
           rdf:resource="http://purl.org/dc/dcmitype/StillImage" />
        <dc:title />
      </cc:Work>
    </rdf:RDF>
  </metadata>
  <g
     inkscape:label="Layer 1"
     inkscape:groupmode="layer"
     id="layer1"
     transform="translate(0,-270.54168)">
    <path
       style="fill:none;stroke:#000000;stroke-width:0.26458332px;stroke-linecap:butt;stroke-linejoin:miter;stroke-opacity:1"
       d="m 6.6145371,277.15624 6.6145829,-3.96875 6.614583,3.96875 -6.614583,3.96875 z"
       id="path3713"
       inkscape:connector-curvature="0"
       sodipodi:nodetypes="ccccc" />
    <path
       style="fill:none;stroke:#000000;stroke-width:0.26458332px;stroke-linecap:butt;stroke-linejoin:miter;stroke-opacity:1"
       d="m 6.6145833,283.77085 6.6145837,3.96875 6.614583,-3.96875"
       id="path3730"
       inkscape:connector-curvature="0"
       sodipodi:nodetypes="ccc" />
    <path
       style="fill:none;stroke:#000000;stroke-width:0.26458332px;stroke-linecap:butt;stroke-linejoin:miter;stroke-opacity:1"
       d="m 6.6145369,277.15624 4.63e-5,6.61461"
       id="path3734"
       inkscape:connector-curvature="0" />
    <path
       style="fill:none;stroke:#000000;stroke-width:0.26458332px;stroke-linecap:butt;stroke-linejoin:miter;stroke-opacity:1"
       d="m 13.22912,281.12499 4.7e-5,6.61461"
       id="path3736"
       inkscape:connector-curvature="0" />
    <path
       style="fill:none;stroke:#000000;stroke-width:0.26458332px;stroke-linecap:butt;stroke-linejoin:miter;stroke-opacity:1"
       d="m 19.843703,277.15624 4.7e-5,6.61461"
       id="path3738"
       inkscape:connector-curvature="0" />
    <path
       style="fill:#668000;stroke-width:0.08928572"
       d="m 37.352262,57.942212 c -8.077967,-4.852019 -12.506971,-7.561591 -12.477679,-7.633583 0.02498,-0.06138 0.0698,-0.171875 0.09961,-0.245536 0.03992,-0.09866 -0.0071,-0.133928 -0.178571,-0.133928 H 24.562851 V 37.609794 25.290425 L 24.337005,25.142444 C 24.111467,24.994666 24.12873,24.983924 37.052954,17.229803 L 49.994749,9.4651416 62.9038,17.210385 c 7.099978,4.259884 12.909051,7.77676 12.909051,7.815281 0,0.03852 -0.08036,0.09554 -0.178572,0.126713 -0.177438,0.05632 -0.178571,0.135092 -0.178571,12.416731 v 12.360055 h -0.278126 -0.278126 l 0.151331,0.230961 c 0.08323,0.127028 0.138077,0.243771 0.121876,0.259427 -0.153942,0.148774 -24.985059,14.990581 -25.118741,15.013723 -0.114053,0.01974 -4.703145,-2.686766 -12.70166,-7.491064 z M 49.540854,52.183629 49.518208,40.241665 37.821779,33.216613 c -6.433035,-3.863779 -11.847098,-7.11077 -12.03125,-7.215535 l -0.334821,-0.190482 v 11.965501 11.965501 l 11.986607,7.191977 c 6.592634,3.955587 12.016888,7.191986 12.053897,7.191998 0.03701,1.1e-5 0.0571,-5.373863 0.04464,-11.941944 z m 13.020463,4.741245 12.001534,-7.200721 V 37.765718 25.807282 l -0.434422,0.252906 c -0.238933,0.139098 -5.661691,3.386834 -12.050573,7.217191 l -11.616149,6.964286 -0.003,11.941964 c -0.0017,6.568081 0.02042,11.941964 0.04904,11.941964 0.02862,0 5.452726,-3.240324 12.05357,-7.200719 z M 62.404988,32.027379 c 6.388883,-3.830357 11.617499,-6.992423 11.619149,-7.026813 0.0016,-0.03439 -5.401018,-3.304848 -12.005929,-7.267685 L 50.009279,10.527725 38.000351,17.732881 c -6.604911,3.962837 -12.008929,7.233316 -12.008929,7.267733 0,0.03442 5.393974,3.30175 11.986607,7.26074 l 11.986608,7.198164 0.4121,-0.233926 c 0.226656,-0.12866 5.639369,-3.367856 12.028251,-7.198213 z"
       id="path20"
       inkscape:connector-curvature="0"
       transform="matrix(0.26458333,0,0,0.26458333,0,270.54168)" />
    <path
       style="fill:#88aa00;stroke-width:0.08928572"
       d="M 48.759279,64.687679 C 44.516713,62.219573 30.584736,53.85696 26.817315,51.517104 c -1.593079,-0.989423 -1.852678,-1.181291 -1.852678,-1.369296 0,-0.159119 -0.04861,-0.218643 -0.178572,-0.218643 -0.177708,0 -0.178571,-0.05952 -0.178571,-12.310497 0,-10.79328 -0.01638,-12.324093 -0.132946,-12.42083 -0.07312,-0.06068 -0.113084,-0.142471 -0.08881,-0.18175 0.107718,-0.17429 2.055482,-1.36267 13.472925,-8.220166 l 12.135099,-7.2885324 10.81133,6.4909644 c 9.877686,5.93042 14.163103,8.516447 14.747366,8.89927 0.204884,0.134245 0.208805,0.15086 0.06109,0.258851 -0.149397,0.109222 -0.159229,0.775171 -0.183718,12.444043 l -0.02587,12.328647 h -0.274572 -0.274574 l 0.151332,0.230961 c 0.08323,0.127028 0.138076,0.242839 0.121876,0.257357 -0.110499,0.09902 -19.370867,11.618505 -23.644553,14.141633 -0.760625,0.449062 -1.423572,0.813627 -1.473214,0.810143 -0.04964,-0.0035 -0.612582,-0.310196 -1.250976,-0.68158 z m 0.789166,-2.370121 c 0.0756,-2.333435 0.07542,-11.585532 -3.58e-4,-17.50421 L 49.488906,40.188601 37.592137,33.050309 C 31.048915,29.124247 25.631255,25.887411 25.552893,25.857342 25.422815,25.807426 25.412387,26.845688 25.433062,37.78827 l 0.02265,11.985603 9.375,5.623568 c 12.026846,7.21427 14.541577,8.716031 14.606364,8.72271 0.02904,0.003 0.07915,-0.808174 0.111373,-1.802593 z m 6.509336,-1.463214 c 3.008146,-1.799186 8.412436,-5.035665 12.009534,-7.192174 l 6.540179,-3.920924 V 37.772081 c 0,-11.362459 -0.0079,-11.966133 -0.15625,-11.909371 -0.08594,0.03289 -5.530134,3.280542 -12.098215,7.217012 l -11.941964,7.157217 v 11.261213 c 0,9.931893 0.03126,12.627441 0.146425,12.627441 0.01702,0 2.492147,-1.472061 5.500291,-3.271249 z m 4.134526,-27.472201 c 11.720636,-7.027916 13.790187,-8.285021 13.790187,-8.376563 0,-0.03644 -0.512277,-0.384078 -1.138393,-0.772525 C 71.890963,23.641722 58.380497,15.502106 51.891807,11.609979 l -1.867472,-1.12017 -10.811099,6.489474 c -11.509769,6.908859 -13.177434,7.924125 -13.176718,8.021925 6.79e-4,0.09248 0.703345,0.523366 9.059835,5.555653 12.124264,7.301247 14.820199,8.918573 14.87274,8.922348 0.027,0.0019 4.627451,-2.74174 10.223214,-6.097066 z"
       id="path121"
       inkscape:connector-curvature="0"
       transform="matrix(0.26458333,0,0,0.26458333,0,270.54168)" />
    <path
       style="fill:#c87137;stroke-width:0.08928572"
       d="M 38.260837,32.326978 C 31.807301,28.45502 26.431572,25.215883 26.314771,25.128895 l -0.212365,-0.158159 11.945498,-7.16815 11.945499,-7.16815 11.948031,7.168369 c 9.110326,5.465853 11.921968,7.192338 11.838295,7.26929 -0.06035,0.05551 -5.436713,3.294546 -11.947464,7.197864 l -11.837729,7.096942 z"
       id="path123"
       inkscape:connector-curvature="0"
       transform="matrix(0.26458333,0,0,0.26458333,0,270.54168)" />
  </g>
</svg>
